<svg version="1" xmlns="http://www.w3.org/2000/svg" width="933.333" height="933.333" viewBox="0 0 700.000000 700.000000"><path d="M346.8 2.4c-11.8 4-20.4 11.9-25 23.4l-2.3 5.7-.2 83.5c-.2 45.9-.5 84.5-.8 85.7-.7 3.1-3.7 4.5-6.8 3.4-2.8-1.1-3.3-2.3-4.2-10.1-.7-6.4-1.4-12.1-2-17-.2-1.9-.7-6-1-9-.4-3-.8-6.6-1-8-.2-1.4-.6-5.4-1-9-.3-3.6-.8-7.2-1-8-.2-.8-.6-4.4-1-8-.3-3.6-.7-7.6-1-9-.2-1.4-.9-7-1.5-12.5-2.1-18.6-2.4-21-4-34-1.9-15.1-2.5-17.3-6.6-24.3-8-14.1-25.4-22.2-40.9-19.1-14.3 2.9-23.6 10-29.6 22.7-2.9 5.9-3.2 7.7-3.3 15.7-.1 8 .8 21 1.9 26.3.2 1 .6 4.3.9 7.3.4 3 .9 7 1.1 8.9.2 1.9.7 6 1 9 .3 3 .8 6.6 1 8 .2 1.4.7 5.4 1 9 .4 3.6.8 7.2 1 8 .2.8.7 4.9 1 9 .4 4.1.9 8.2 1 9.1.2.9.6 3.8.9 6.5.3 2.7 1.1 8.9 1.6 13.9.6 4.9 1.3 10.6 1.5 12.5.2 1.9.9 7.3 1.4 12 .6 4.7 1.3 11 1.6 14 .9 9.2 2.5 20.3 2.9 20.8.3.2 2.6-.1 5.3-.7 5.5-1.1 20.2-.7 25.1.8 23.6 7.2 39.7 29.4 38.8 53.4-.4 9.1-.9 11.8-3.3 18-2.1 5.3-9 16-13.8 21.2-4.4 4.7-15.7 17.3-18.6 20.6-15.3 17.7-18.7 20.3-24.5 18.8-6.5-1.8-9.6-8.9-6.3-15 .9-1.9 11.6-14.3 19.4-22.5.5-.6 3.7-4.2 7-8 3.3-3.7 6.7-7.5 7.5-8.4 8.9-9.4 12.6-18.5 11.6-28.7-1.2-11.8-7.9-21.6-18.2-26.8-5-2.5-7.1-2.9-13.9-2.9-6.6 0-9 .5-13.8 2.7-7 3.2-8.5 4.7-34.7 34.2-6.9 7.7-12.9 14.5-13.5 15.1-1.3 1.4-12.5 14-16 17.9-1.4 1.6-4.7 5.5-7.3 8.5-2.6 3-5.3 6.1-6.1 7-1.4 1.5-4 6.9-5 10.5-.3 1.1-.5 5.4-.5 9.5.1 9.7 3.1 15.9 12.2 25.6 3.7 4 12.3 13.2 19.2 20.5 14.6 15.4 15.5 16.4 32 34 12.4 13.3 31.4 33 46.2 47.9 18 18.1 38.5 32.2 55.5 37.9 12.2 4.2 16.7 4.4 73.8 4.6 50.5.1 61.5-.2 70-2 6.3-1.3 7.3-1.5 13.1-3.4 31-9.9 57.4-36.1 67.8-67.1 4.9-14.7 5.4-21.2 5.5-67.3l.2-42.8-4.3 2.5c-7.9 4.5-16.5 6.8-26.3 6.8-13.9.1-25-3.8-35.8-12.6l-5.3-4.3-2 2.2c-3.2 3.6-12.5 9.4-18.6 11.5-9.5 3.3-19.2 4.2-29.3 2.7-15.7-2.4-32.4-14.1-39-27.4l-2.9-5.8v-46.7l-.1-46.7 3-3.1c7.1-7.4 18.4-4.5 20 5.2.4 2.2.7 21.6.7 43.1 0 29 .3 40 1.2 42.2 1.9 4.5 8.4 10.5 14.5 13.3 11.1 5.1 25.4 2.6 34.4-5.9 6.7-6.5 6.7-6.6 6.7-38.9 0-32 .3-34 5.9-37.3 5.6-3.3 13.1-1.2 16.3 4.6.9 1.6 1.3 10.7 1.4 32.2.1 33.1.1 33 6.6 39.2 5.4 5.2 13 8.4 20.4 8.8 10.3.4 18.2-3.1 25.3-11.1 7.1-8.1 7.2-9 7.1-54.3-.2-37.1-.3-40.7-2.1-45.9-3.7-10.7-10.8-19-20.3-23.6-6.3-3-8.4-3.6-16.5-4-11.4-.7-21.4 3.5-30.1 12.3l-5.5 5.6-.1-9.5c-.2-13.9-3.5-23-11.5-30.9-7.4-7.4-15.9-11.1-26.7-11.6-12.3-.6-21.7 3.2-30.8 12.4l-5 5-.1-78.7c0-83.7 0-82.5-4.8-91.9-4.2-8.3-15.8-17.5-25-19.8-6.9-1.7-16-1.4-22.7.9zM274.8 586c-7.8 2.3-14.2 9.4-15.6 17.3-.4 2.3-.7 21.1-.7 41.7.1 37 .2 37.6 2.4 42 2.7 5.3 6.1 8.6 11.6 11.1 3.8 1.8 9.6 1.8 131 1.8 124.5 0 127.1 0 131-2 5.5-2.7 10-7.3 11.9-12.1 1.3-3.5 1.5-9.7 1.5-43.7 0-37.1-.1-39.9-1.9-43.8-2.4-5.1-8.7-10.6-13.9-12.1-4.5-1.4-252.8-1.6-257.3-.2z"/></svg>