<?xml version="1.0" encoding="iso-8859-1"?>
<!-- Generator: Adobe Illustrator 18.0.0, SVG Export Plug-In . SVG Version: 6.00 Build 0)  -->
<!DOCTYPE svg PUBLIC "-//W3C//DTD SVG 1.1//EN" "http://www.w3.org/Graphics/SVG/1.1/DTD/svg11.dtd">
<svg version="1.1" id="Capa_1" xmlns="http://www.w3.org/2000/svg" xmlns:xlink="http://www.w3.org/1999/xlink" x="0px" y="0px"
	 viewBox="0 0 287.084 287.084" style="enable-background:new 0 0 287.084 287.084;" xml:space="preserve">
<g>
	<path d="M215.494,239.917l-100.187,0c-5.126,0-9.282,4.156-9.282,9.282v28.602c0,5.126,4.156,9.282,9.282,9.282h100.187
		c5.126,0,9.282-4.156,9.282-9.282v-28.603C224.776,244.073,220.62,239.917,215.494,239.917z"/>
	<path d="M141.574,223.32h39.537c24.077,0,43.665-19.589,43.665-43.666c0-6.332,0-24.859,0-31.179
		c-3.597,2.441-8,3.903-12.717,3.903c-6.391,0-12.303-2.642-16.507-7.099c-4.205,4.457-10.118,7.099-16.508,7.099
		c-13.801,0-21.387-10.643-21.343-15.602c0.007-0.758-0.035-5.792-0.035-34.91c0-2.766,2.304-4.871,4.871-4.871
		c2.69,0,4.871,2.181,4.871,4.871v32.227c0,0.951,0.276,1.884,0.796,2.68c0.001,0.001,0.001,0.002,0.002,0.003
		c2.367,3.619,6.397,5.859,10.837,5.859s8.47-2.24,10.838-5.859c0.515-0.788,0.784-1.697,0.784-2.637v-22.273
		c0-2.582,2.151-4.871,4.871-4.871c2.69,0,4.871,2.181,4.871,4.871v22.181c0,0.966,0.28,1.914,0.808,2.722
		c0.001,0.002,0.003,0.005,0.005,0.007c2.367,3.619,6.397,5.859,10.837,5.859c6.155,0,11.507-4.41,12.717-10.404v-30.365
		c0-9.105-7.382-16.487-16.487-16.487c-5.926,0-11.107,3.137-14.013,7.831v-5.357c0-9.105-7.382-16.487-16.487-16.487
		c-5.927,0-11.108,3.138-14.014,7.832v-62.71C163.775,7.382,156.393,0,147.288,0C138.182,0,130.8,7.382,130.8,16.487v65.28
		c0,1.168-0.91,2.133-2.076,2.201c-1.166,0.068-2.183-0.784-2.319-1.943l-6.245-52.997c-1.065-9.042-9.261-15.513-18.304-14.444
		c-9.043,1.065-15.51,9.261-14.444,18.304l8.181,69.434c7.706-2.385,15.624-0.478,21.318,4.606
		c8.636,7.707,9.854,20.687,2.91,29.849c-0.363,0.479-0.734,0.954-1.138,1.407l-15.026,16.833c-1.53,1.711-4.272,1.98-6.103,0.347
		c-1.781-1.59-1.936-4.322-0.347-6.102l15.027-16.834c4.965-5.559,4.487-14.084-1.079-19.05c-5.549-4.954-14.072-4.5-19.05,1.078
		l-26.36,29.529c-4.815,5.393-4.539,13.575,0.628,18.629l0.125,0.128c33.275,35.366,34.706,37.042,42.708,44.871
		C119.364,216.813,128.465,223.32,141.574,223.32z"/>
</g>
<g>
</g>
<g>
</g>
<g>
</g>
<g>
</g>
<g>
</g>
<g>
</g>
<g>
</g>
<g>
</g>
<g>
</g>
<g>
</g>
<g>
</g>
<g>
</g>
<g>
</g>
<g>
</g>
<g>
</g>
</svg>
